<svg width="177" height="20" viewBox="0 0 178 21" fill="none" xmlns="http://www.w3.org/2000/svg">
<g clip-path="url(#clip0)">
<path d="M10.34 24.95L0 0.399994H2.77L11.48 21.94L20.35 0.399994H23.06L12.71 24.95H10.34Z" fill="#1F4386"/>
<path d="M34.55 24.95V0.399994H37.05V11.21H50.03V0.399994H52.53V24.95H50.03V13.4H37.05V24.94H34.55V24.95Z" fill="#1F4386"/>
<path d="M75.06 13.6H92.03C92.03 16.9 90.67 19.7 87.94 22.03C85.3 24.29 82.25 25.41 78.78 25.41C75.17 25.41 72.04 24.15 69.38 21.63C66.72 19.11 65.39 16.08 65.39 12.54C65.39 10.93 65.73 9.36 66.42 7.83C67.11 6.3 68.05 4.96 69.24 3.78C71.88 1.26 75.06 0 78.78 0C81.49 0 83.94 0.71 86.15 2.12C87.1 2.74 87.94 3.44 88.69 4.21C89.61 5.16 90.21 6.08 90.48 6.96H87.64C86.78 5.52 85.55 4.4 83.94 3.59C82.33 2.78 80.61 2.38 78.78 2.38C77.43 2.38 76.1 2.61 74.81 3.06C73.51 3.51 72.35 4.2 71.33 5.13C70.3 6.06 69.48 7.2 68.84 8.55C68.21 9.9 67.89 11.25 67.89 12.6C67.89 15.54 68.98 18.01 71.15 20.01C73.32 22.01 75.91 23.01 78.91 23.01C81.19 23.01 83.28 22.34 85.2 21C87.12 19.66 88.38 17.94 88.99 15.84H75.06V13.6Z" fill="#1F4386"/>
<path d="M107.33 24.95V0.399994H109.83V11.21H122.81V0.399994H125.31V24.95H122.81V13.4H109.83V24.94H107.33V24.95Z" fill="#079147"/>
<path d="M148.92 0C152.23 0 155.09 1.22 157.49 3.67C159.89 6.11 161.09 9.09 161.09 12.61C161.09 16.15 159.91 19.17 157.54 21.67C155.17 24.17 152.3 25.42 148.92 25.42C145.65 25.42 142.81 24.2 140.4 21.77C137.92 19.27 136.68 16.29 136.68 12.81C136.68 9.23 137.87 6.2 140.26 3.72C142.65 1.24 145.54 0 148.92 0ZM148.99 2.39C146.24 2.37 143.89 3.37 141.96 5.41C140.03 7.45 139.05 9.91 139.05 12.81C139.05 15.62 140.03 18.02 141.99 20.03C143.95 22.03 146.28 23.03 148.99 23.03C151.67 23.03 153.99 22.02 155.94 20C157.89 17.98 158.86 15.52 158.86 12.62C158.86 9.81 157.86 7.41 155.87 5.4C153.87 3.39 151.58 2.39 148.99 2.39Z" fill="#079147"/>
<path d="M172.72 24.95V0.399994H176.58L185.7 21.24L194.82 0.399994H198.68V24.95H196.18V3.11999L186.78 24.95H184.61L175.21 3.11999V24.95H172.72Z" fill="#079147"/>
<path d="M211.81 24.95V0.399994H229.53V2.65999H214.31V11.48H229.53V13.67H214.31V22.69H229.53V24.95H211.81Z" fill="#079147"/>
</g>
<defs>
<clipPath id="clip0">
<rect width="177" height="20" fill="white"/>
</clipPath>
</defs>
</svg>
