<svg width="37" height="37" viewBox="0 0 37 37" fill="none" xmlns="http://www.w3.org/2000/svg">
<path d="M25.7838 23.1667H24.1543L23.5767 22.6042C25.5982 20.2292 26.8152 17.1458 26.8152 13.7917C26.8152 6.3125 20.8127 0.25 13.4076 0.25C6.00248 0.25 0 6.3125 0 13.7917C0 21.2708 6.00248 27.3333 13.4076 27.3333C16.7285 27.3333 19.7814 26.1042 22.1328 24.0625L22.6898 24.6458V26.2917L33.0033 36.6875L36.0767 33.5833L25.7838 23.1667ZM13.4076 23.1667C8.27145 23.1667 4.12541 18.9792 4.12541 13.7917C4.12541 8.60417 8.27145 4.41667 13.4076 4.41667C18.5437 4.41667 22.6898 8.60417 22.6898 13.7917C22.6898 18.9792 18.5437 23.1667 13.4076 23.1667Z" fill="#079147"/>
<path d="M18.5645 14.8335H14.4391V19.0002H12.3764V14.8335H8.25098V12.7502H12.3764V8.5835H14.4391V12.7502H18.5645V14.8335Z" fill="#079147"/>
</svg>
